<svg width="24" height="24" viewBox="0 0 24 24" fill="none" xmlns="http://www.w3.org/2000/svg">
    <path fill-rule="evenodd" clip-rule="evenodd" d="M9.00131 3.00021C9.00143 2.44792 8.5538 2.00011 8.00152 2C7.44923 1.99989 7.00143 2.44751 7.00131 2.99979L7.00111 3.99979H6.9991H5C3.34315 3.99979 2 5.34294 2 6.99979V18.9998C2 20.6566 3.34315 21.9998 5 21.9998H19C20.6569 21.9998 22 20.6566 22 18.9998V6.99979C22 5.34294 20.6569 3.99979 19 3.99979H17.0011L17.0013 3.00021C17.0014 2.44792 16.5538 2.00011 16.0015 2C15.4492 1.99989 15.0014 2.44751 15.0013 2.99979L15.0011 3.99979H14.9991H9.00111L9.00131 3.00021ZM7.99949 8C7.99975 8 8.00002 8 8.00028 8C8.55257 8.00011 9.00037 7.55249 9.00049 7.00021L9.00069 5.99979H14.9987L14.9985 6.99979C14.9984 7.55208 15.446 7.99989 15.9983 8C15.9987 8 15.9991 8 15.9995 8C15.9998 8 16 8 16.0003 8C16.5526 8.00011 17.0004 7.55249 17.0005 7.00021L17.0007 5.99979H19C19.5523 5.99979 20 6.44751 20 6.99979V18.9998C20 19.5521 19.5523 19.9998 19 19.9998H5C4.44772 19.9998 4 19.5521 4 18.9998V6.99979C4 6.44751 4.44772 5.99979 5 5.99979H6.99869L6.99848 6.99979C6.99837 7.55208 7.44599 7.99989 7.99827 8C7.99868 8 7.99908 8 7.99949 8ZM7.49999 9.99979C6.9477 9.99979 6.49999 10.4475 6.49999 10.9998C6.5 11.5521 6.94771 11.9998 7.5 11.9998L16.5 11.9997C17.0523 11.9997 17.5 11.552 17.5 10.9997C17.5 10.4474 17.0523 9.99974 16.5 9.99974L7.49999 9.99979ZM7.50975 12.9917C6.95747 12.9917 6.50976 13.4395 6.50976 13.9917C6.50976 14.544 6.95748 14.9917 7.50977 14.9917L16.5098 14.9917C17.062 14.9917 17.5098 14.544 17.5098 13.9917C17.5098 13.4394 17.062 12.9917 16.5098 12.9917L7.50975 12.9917ZM7.51952 15.9837C6.96724 15.9837 6.51952 16.4314 6.51953 16.9837C6.51953 17.536 6.96725 17.9837 7.51953 17.9837L16.5195 17.9836C17.0718 17.9836 17.5195 17.5359 17.5195 16.9836C17.5195 16.4313 17.0718 15.9836 16.5195 15.9836L7.51952 15.9837Z" fill="#2D3748"/>
</svg>
