<?xml version="1.0" encoding="UTF-8"?>
<svg width="29px" height="24px" viewBox="0 0 29 24" version="1.1" xmlns="http://www.w3.org/2000/svg" xmlns:xlink="http://www.w3.org/1999/xlink">
    <!-- Generator: sketchtool 63.1 (101010) - https://sketch.com -->
    <title>CAAEE24C-EA4F-4403-A9BC-887F04BD39EA</title>
    <desc>Created with sketchtool.</desc>
    <g id="Search-results" stroke="none" stroke-width="1" fill="none" fill-rule="evenodd">
        <g id="search-video---results" transform="translate(-694.000000, -1089.000000)">
            <g id="videos-/-video-list" transform="translate(24.000000, 431.000000)">
                <g id="video-list">
                    <g id="home-24px" transform="translate(667.755000, 655.000000)">
                        <polygon id="Path" points="0 0 33.44 0 33.44 32 0 32"></polygon>
                        <path d="M26.0207477,27 C26.8489674,27 27.5266018,26.3515461 27.5266018,25.5589913 L27.5266018,15.4719304 L30.0865537,15.4719304 C30.7792466,15.4719304 31.1105345,14.6505554 30.5834856,14.2182528 L17.9945453,3.36745722 C17.4223208,2.87751426 16.5489254,2.87751426 15.9767008,3.36745722 L3.38776058,14.2182528 C2.87577019,14.6505554 3.19199955,15.4719304 3.88469244,15.4719304 L6.4446444,15.4719304 L6.4446444,25.5589913 C6.4446444,26.3515461 7.12227875,27 7.9504985,27 L26.0207477,27 Z" id="Path" fill="#8C8C8C" fill-rule="nonzero"></path>
                        <text id="T" font-family="Heebo-Black, Heebo" font-size="16" font-weight="700" fill="#FFFFFF">
                            <tspan x="12.4139062" y="24">T</tspan>
                        </text>
                    </g>
                </g>
            </g>
        </g>
    </g>
</svg>