<svg viewBox="0 0 107 33">
  <title>Boclips logo</title>
  <defs>
    <linearGradient id="a" x1="0%" x2="100%" y1="50%" y2="50%">
      <stop offset="7%" stop-color="#888889"/>
      <stop offset="60%" stop-color="#383838"/>
      <stop offset="100%" stop-color="#0B1019"/>
    </linearGradient>
  </defs>
  <g fill="none" fill-rule="evenodd">
    <path fill="#0B101B" d="M39.6280397 17.6591216c0-4.9983785 3.2613625-8.96928717 8.2951857-8.96928717 2.9778034 0 4.6793744 1.16989762 6.0619415 2.90691357l-1.2751518 1.1344527c-1.241868-1.7011388-2.8016595-2.3743756-4.6804549-2.3743756-4.0059214 0-6.4518353 3.1904726-6.4518353 7.3027287s2.44613 7.3381738 6.4518353 7.3381738c1.8787954 0 3.4385869-.7088979 4.6793744-2.410469l1.2751516 1.1344528c-1.3832154 1.7722446-3.0841381 2.9423584-6.0619413 2.9423584-5.0327427-.0006485-8.2941052-4.0065698-8.2941052-9.0049482zM58.0974228 22.9410592V2.59352882h1.8433508V22.6579323c0 1.3832153.5671182 2.339579 1.7722446 2.339579.8154487 0 1.5243466-.3890292 1.9142404-.8154486l.7088979 1.418228c-.673453.6380081-1.4889016 1.063563-2.9069135 1.063563-2.2319478-.0004324-3.3318202-1.3829993-3.3318202-3.7227945z"/>
    <path fill="#0B101B" fill-rule="nonzero" d="M66.6753033 5.00356547c0-.77978766.673453-1.38321537 1.4180119-1.38321537.7797876 0 1.4180119.6025632 1.4180119 1.38321537-.0020192.78230844-.6357034 1.41599271-1.4180119 1.41801188-.7436944 0-1.4180119-.63800809-1.4180119-1.41801188zm.4970931 21.23430103V9.11582154h1.8433506V26.2378665h-1.8433506zM76.5979285 23.4729487v9.2876428h-1.8433506V9.1162538h1.8433506v2.6942442c1.2053424-1.7370159 3.403142-3.11958294 5.9556067-3.11958294 4.5730396 0 7.6571777 3.47403184 7.6571777 8.96928714 0 5.459162-3.0841381 9.0042998-7.6571777 9.0042998-2.4096044-.0010807-4.5723913-1.241868-5.9556067-3.1915533zm11.6276542-5.8138271c0-4.1468365-2.1612741-7.3022965-5.9901871-7.3022965-2.3739433 0-4.6432811 1.4175796-5.6374671 3.0473964v8.472194c.9926731 1.6306813 3.2613625 3.1195834 5.6366026 3.1195834 3.8297775.0012963 5.9910516-3.1887441 5.9910516-7.3368773z"/>
    <path fill="#0B101B" d="M93.3670374 23.9337323l1.0990079-1.3471221c1.0990078 1.3832154 3.1195828 2.5170197 5.5300517 2.5170197 2.871469 0 4.57304-1.4889016 4.57304-3.4740318 0-4.6793744-10.8122058-2.020575-10.8122058-8.1888511 0-2.6233544 2.2332445-4.7502642 6.0973863-4.7502642 2.9423585 0 4.8920435 1.13445274 6.1328315 2.5170197l-1.027902 1.3105966c-.992673-1.3471221-2.836024-2.2693377-5.1047133-2.2693377-2.6583671 0-4.2540357 1.3471221-4.2540357 3.1195828 0 4.2894806 10.776761 1.6661263 10.776761 8.259741 0 2.7651339-2.12691 5.0338254-6.4163907 5.0338254-2.7659984.0015107-4.8926921-.8130734-6.5938309-2.7281783z"/>
    <path fill="#0A101A" fill-rule="nonzero" d="M28.7449443 9.05962841c-5.0530585 0-9.1495374 4.09626259-9.1495374 9.14932129 0 5.0530587 4.0964789 9.1493213 9.1495374 9.1493213 5.0530587 0 9.1493213-4.0962626 9.1493213-9.1493213s-4.0956142-9.14932129-9.1493213-9.14932129zm-.013616 14.48053599c-2.9293907 0-5.3044147-2.375024-5.3044147-5.304631 0-2.9296069 2.375024-5.3044148 5.3044147-5.3044148 2.9293909 0 5.3044149 2.375024 5.3044149 5.3044148 0 2.9293907-2.373079 5.3054954-5.3037664 5.3054954l-.0006485-.0008644z"/>
    <path fill="#DC491C" d="M30.8013966 17.8979424c-.1435086-.1571247-1.9235339-1.7182129-2.5394969-1.9918302-.2842076-.1262184-.5083316-.0056193-.614018.2978236a2.14959933 2.14959933 0 00-.0782381.3853551c-.0523028.4106422-.072835 1.0181762-.0704576 1.6196588-.0023774.6012665.0181548 1.2090166.0704576 1.6196588a2.14505699 2.14505699 0 00.0782381.385139c.1056864.3025783.3298104.4242581.614018.2980397.615963-.2736173 2.3959883-1.8347055 2.5394969-1.9918302.0819122-.0894767.1469666-.1884631.1413474-.3110073.0066999-.1225442-.0594352-.2215306-.1413474-.3110073z"/>
    <path fill="#0A101A" fill-rule="nonzero" d="M9.16769212 9.11128286c-1.89569779-.0030329-3.74509956.58552989-5.29036654 1.68363244V.4424128C3.87661352.20589044 3.68505116.01432808 3.44852882.01361602H.44716759C.21064525.01432809.0190829.20589045.01837083.44241279V18.2614687c0 5.0530587 4.09626264 9.1493212 9.14932129 9.1493212 5.05305868 0 9.14932128-4.0962625 9.14932128-9.1493212 0-5.0530587-4.0958304-9.15018584-9.14932128-9.15018584zM9.15429221 23.5918187c-2.92960692 0-5.3044148-2.375024-5.3044148-5.3044147 0-.0097258.02744817-.5439928.02744817-.5439928.27232053-2.6732797 2.53106801-4.7597737 5.27696663-4.7597737 2.92960689 0 5.30441489 2.3750241 5.30441489 5.3046309 0 2.929607-2.374808 5.3044149-5.30441489 5.3044149v-.0008646z"/>
    <path fill="url(#a)" d="M9.22647876 9.11020222c-1.9710819 0-3.84555485.57403439-5.35498862 1.68384858l.02161274 6.8626934c.38621967-2.7422245 2.6123319-4.6731067 5.31997599-4.6739712"/>
  </g>
</svg>