<svg width="20" height="20" viewBox="0 0 20 20" fill="none" xmlns="http://www.w3.org/2000/svg">
<path d="M11.3869 11.7678C11.8557 11.2989 12.1191 10.663 12.1191 10C12.1191 9.33696 11.8557 8.70107 11.3869 8.23223C10.9181 7.76339 10.2822 7.5 9.61914 7.5C8.9561 7.5 8.32021 7.76339 7.85137 8.23223C7.38253 8.70107 7.11914 9.33696 7.11914 10C7.11914 10.663 7.38253 11.2989 7.85137 11.7678C8.32021 12.2366 8.9561 12.5 9.61914 12.5C10.2822 12.5 10.9181 12.2366 11.3869 11.7678Z" stroke="#A0AEC0" stroke-width="2" stroke-linecap="round" stroke-linejoin="round"/>
<path d="M1.66699 10C2.72866 6.61919 5.88783 4.16669 9.61866 4.16669C13.3503 4.16669 16.5087 6.61919 17.5703 10C16.5087 13.3809 13.3503 15.8334 9.61866 15.8334C5.88783 15.8334 2.72866 13.3809 1.66699 10Z" stroke="#A0AEC0" stroke-width="2" stroke-linecap="round" stroke-linejoin="round"/>
</svg>
