<svg aria-labelledby="search-icon" viewBox="0 0 20 20" fill="none" stroke="currentColor" xmlns="http://www.w3.org/2000/svg">
<title id="search-icon">Search icon</title>
    <path d="M18.25 18.25L12.75 12.75M14.5833 8.16667C14.5833 9.00932 14.4174 9.84371 14.0949 10.6222C13.7724 11.4007 13.2998 12.1081 12.7039 12.7039C12.1081 13.2998 11.4007 13.7724 10.6222 14.0949C9.84371 14.4174 9.00932 14.5833 8.16667 14.5833C7.32402 14.5833 6.48962 14.4174 5.71111 14.0949C4.93261 13.7724 4.22524 13.2998 3.6294 12.7039C3.03356 12.1081 2.56091 11.4007 2.23844 10.6222C1.91597 9.84371 1.75 9.00932 1.75 8.16667C1.75 6.46486 2.42604 4.83276 3.6294 3.6294C4.83276 2.42604 6.46486 1.75 8.16667 1.75C9.86847 1.75 11.5006 2.42604 12.7039 3.6294C13.9073 4.83276 14.5833 6.46486 14.5833 8.16667Z" stroke-width="2" stroke-linecap="round" stroke-linejoin="round"/>
</svg>
