<svg xmlns="http://www.w3.org/2000/svg" viewBox="0 0 13 13">
  <path fill="#214B7A" fill-rule="evenodd" d="M11.8566667 11.8566667c-.52.52-1.36.52-1.88000003 0L6.12333334 8.00333334 2.27 11.8566667c-.52.52-1.36.52-1.88 0-.52-.52-.52-1.36 0-1.88000003l3.85333334-3.85333333L.39 2.27C-.13 1.75-.13.91.39.39c.52-.52 1.36-.52 1.88 0l3.85333334 3.85333334L9.97666667.39c.52000003-.52 1.36000003-.52 1.88000003 0s.52 1.36 0 1.88L8.00333334 6.12333334l3.85333336 3.85333333c.5066667.50666673.5066667 1.36000003 0 1.88000003z"/>
</svg>
