<svg width="20" height="20" viewBox="0 0 20 20" fill="none" xmlns="http://www.w3.org/2000/svg">
<path d="M11.182 15.6875C10.6669 15.7849 10.1437 15.8337 9.61949 15.8333C5.88783 15.8333 2.72949 13.3808 1.66699 10C1.95305 9.09008 2.39365 8.23622 2.96949 7.47583M7.85116 8.2325C8.32004 7.76362 8.95598 7.5002 9.61908 7.5002C10.2822 7.5002 10.9181 7.76362 11.387 8.2325C11.8559 8.70138 12.1193 9.33732 12.1193 10.0004C12.1193 10.6635 11.8559 11.2995 11.387 11.7683M7.85116 8.2325L11.387 11.7683M7.85116 8.2325L11.3862 11.7667M11.387 11.7683L14.1295 14.51M7.85283 8.23333L5.11116 5.49167M5.11116 5.49167L2.11949 2.5M5.11116 5.49167C6.45479 4.62464 8.02041 4.1645 9.61949 4.16667C13.3512 4.16667 16.5095 6.61917 17.572 10C16.9854 11.8587 15.7673 13.4538 14.1287 14.5092M5.11116 5.49167L14.1287 14.5092M14.1287 14.5092L17.1195 17.5" stroke="#A0AEC0" stroke-width="2" stroke-linecap="round" stroke-linejoin="round"/>
</svg>
