<?xml version="1.0" encoding="UTF-8"?>
<svg width="230px" height="227px" viewBox="0 0 230 227" version="1.1" xmlns="http://www.w3.org/2000/svg" xmlns:xlink="http://www.w3.org/1999/xlink">
    <title>no search results</title>
    <g id="Phase-1-design" stroke="none" stroke-width="1" fill="none" fill-rule="evenodd">
        <g id="LTI-discovery---no-search-results" transform="translate(-620.000000, -423.000000)" fill-rule="nonzero">
            <g id="no-search-results" transform="translate(620.000000, 423.000000)">
                <g id="Floor" transform="translate(11.000000, 0.000000)" fill="#E6EFFF">
                    <path d="M1.59,71.94 L8.16,69.66 C8.16,69.66 6.24,64.14 11.94,62.05 C14.1757906,61.1868157 16.7129018,61.8281077 18.27,63.65 C19.5769293,65.156389 20.0892846,67.194672 19.65,69.14 C19.17,71.36 17.31,73.88 12.65,74.64 L17.8,89.44 L24.3,87.19 L21.3,78.51 C21.3,78.51 29.59,72.99 26.1,62.95 C22.7,53.36 13.29,54.12 9.63,55.36 C6.81,56.36 -2.56,60.36 1.59,71.94 Z" id="Path"></path>
                    <rect id="Rectangle" transform="translate(23.157697, 94.433362) rotate(-19.170000) translate(-23.157697, -94.433362) " x="19.6676973" y="91.1733617" width="6.98" height="6.52"></rect>
                    <path d="M29.44,21.67 L36.87,19.67 C36.87,19.67 35.16,13.43 41.62,11.55 C44.1533391,10.7599034 46.9092668,11.6584882 48.49,13.79 C49.8257228,15.5504584 50.2417634,17.8423966 49.61,19.96 C48.91,22.38 46.67,25.02 41.42,25.51 L46,42.27 L53.35,40.27 L50.66,30.45 C50.66,30.45 60.24,24.97 57.14,13.61 C54.14,2.74 43.73,2.88 39.56,4.02 C36.37,4.86 25.71,8.6 29.44,21.67 Z" id="Path"></path>
                    <rect id="Rectangle" transform="translate(51.587905, 48.167985) rotate(-15.280000) translate(-51.587905, -48.167985) " x="47.7229051" y="44.557985" width="7.73" height="7.22"></rect>
                    <path d="M91.44,9.62 L96.83,10.5 C97.0219692,9.25466723 97.7121539,8.14095953 98.7419335,7.41483289 C99.771713,6.68870626 101.052522,6.41261091 102.29,6.65 C104.159991,6.88019915 105.675884,8.27546367 106.06,10.12 C106.41015,11.645228 106.004436,13.2457484 104.97,14.42 C103.82,15.78 101.59,16.83 98.06,15.6 L96.06,27.75 L101.38,28.61 L102.54,21.5 C107.260669,20.8977118 110.995242,17.2122779 111.66,12.5 C112.93,4.62 106.16,1.65 103.14,1.16 C100.85,0.81 92.88,0.1 91.44,9.62 Z" id="Path"></path>
                    <rect id="Rectangle" transform="translate(97.961949, 33.207886) rotate(9.190000) translate(-97.961949, -33.207886) " x="95.2219485" y="30.6478856" width="5.48" height="5.12"></rect>
                </g>
                <path d="M59.92,205.5 C75.28,195.5 79.3,176.07 79.25,158.5 C79.25,155.58 79.66,152.5 78.35,149.89 C77.04,147.28 73.84,145.43 71.19,146.58 C68.98,147.53 67.96,150.03 66.68,152.08 C64.9666578,154.816329 62.5161463,157.013817 59.61,158.42 C57.72,159.33 55.4,159.85 53.61,158.78 C51.13,157.31 50.94,153.78 51.05,150.9 L51.65,134.64 C51.9132043,131.736491 51.7106496,128.809575 51.05,125.97 C50.23,123.18 48.31,120.55 45.56,119.69 C42.81,118.83 39.35,120.32 38.67,123.15 C38.5259136,124.351071 38.4624382,125.560445 38.48,126.77 C38.475991,128.002089 37.7357707,129.112419 36.6,129.59 C35.42,129.9 34.29,129.04 33.44,128.16 C30.53,125.16 28.61,121.28 26.82,117.45 C25.03,113.62 23.31,109.72 20.68,106.45 C18.05,103.18 14.37,100.51 10.21,100.14 C6.05,99.77 1.53,102.21 0.35,106.27 C-0.83,110.33 1.43,114.57 3.93,117.97 C7.63859025,123.019054 12.0576261,127.505453 17.05,131.29 C18.0291633,131.866971 18.7969267,132.743414 19.24,133.79 C19.81,135.79 17.91,137.62 15.97,138.2 C13.78,138.85 11.44,138.55 9.16,138.75 C6.88,138.95 4.39,139.87 3.47,141.99 C2.18,144.92 4.57,148.12 6.96,150.24 C11.7357626,154.477157 17.2057455,157.859954 23.13,160.24 C25.25,161.09 27.48,161.85 29.13,163.41 C30.78,164.97 31.77,167.61 30.66,169.63 C29.55,171.65 26.85,172.22 24.66,171.74 C22.47,171.26 20.46,169.97 18.35,169.1 C14.35,167.47 9.22,167.58 6.55,170.96 C4.87891461,173.318921 4.41236299,176.325587 5.29,179.08 C6.18381848,181.778329 7.60844172,184.27057 9.48,186.41 C15.5790146,194.216726 23.6398306,200.265788 32.84,203.94 C42.02,207.44 50.59,208.58 59.91,205.5" id="Path" fill="#E6F4F1"></path>
                <path d="M55.74,194.36 C53.1367846,184.726625 49.9815728,175.250973 46.29,165.98 C45.29,163.51 44.37,161.07 43.43,158.66 C42.49,156.25 41.54,153.88 40.43,151.61 C38.3865726,147.254827 36.0996222,143.018126 33.58,138.92 C31.21,134.99 28.82,131.34 26.58,127.92 C24.34,124.5 22.13,121.41 20.02,118.66 C16.7235123,114.28884 13.0818434,110.189037 9.13,106.4 C7.73,105.05 6.62,104.05 5.85,103.4 L4.97,102.64 C4.87768836,102.546695 4.77345296,102.465997 4.66,102.4 L4.94,102.68 L5.78,103.48 C6.52,104.18 7.61,105.21 8.98,106.57 C12.8686911,110.404142 16.4591157,114.529453 19.72,118.91 C21.8,121.67 23.96,124.8 26.21,128.19 C28.46,131.58 30.84,135.19 33.21,139.19 C35.7048682,143.283393 37.974898,147.509655 40.01,151.85 C41.01,154.11 42.01,156.47 42.93,158.85 L45.79,166.16 C49.4872869,175.417027 52.6590003,184.875411 55.29,194.49" id="Path" fill="#E0E0E0"></path>
                <path d="M40.29,151.59 C40.4399122,151.192485 40.5471806,150.780173 40.61,150.36 C40.79,149.56 41.01,148.36 41.26,146.95 C41.76,144.07 42.32,140.06 42.91,135.64 C43.5,131.22 44.12,127.23 44.67,124.36 C44.93,122.93 45.16,121.77 45.33,120.97 C45.4435246,120.55879 45.5106098,120.136152 45.53,119.71 C45.3533699,120.097708 45.2192544,120.503407 45.13,120.92 C44.9,121.7 44.61,122.85 44.3,124.28 C43.65,127.14 42.98,131.14 42.38,135.56 C41.78,139.98 41.28,143.87 40.88,146.89 C40.69,148.25 40.53,149.4 40.41,150.32 C40.3224384,150.737484 40.2821846,151.163504 40.29,151.59 L40.29,151.59 Z" id="Path" fill="#E0E0E0"></path>
                <path d="M3.11,143.43 C3.59398097,143.557981 4.09000488,143.635066 4.59,143.66 C5.59,143.77 6.94,143.93 8.59,144.18 C12.01,144.66 16.7,145.48 21.84,146.62 C26.98,147.76 31.58,149 34.89,149.99 C36.55,150.47 37.89,150.9 38.8,151.19 C39.2705143,151.366071 39.7557606,151.499932 40.25,151.59 C39.8114598,151.343875 39.3490955,151.142847 38.87,150.99 C37.97,150.63 36.65,150.15 35,149.62 C31.72,148.53 27.11,147.24 21.95,146.09 C17.5555933,145.098652 13.1130414,144.334306 8.64,143.8 C6.92,143.6 5.53,143.5 4.56,143.45 C4.07809976,143.402379 3.59303034,143.395689 3.11,143.43 Z" id="Path" fill="#E0E0E0"></path>
                <path d="M55.29,193.67 C55.4015002,193.533996 55.4924668,193.382385 55.56,193.22 C55.75,192.86 55.97,192.42 56.24,191.89 C56.83,190.72 57.64,189.02 58.6,186.89 C60.54,182.66 63.04,176.73 65.7,170.15 C68.36,163.57 70.8,157.63 72.64,153.37 C73.55,151.3 74.29,149.59 74.85,148.37 C75.08,147.82 75.28,147.37 75.44,146.99 C75.5223665,146.833206 75.5797251,146.664505 75.61,146.49 C75.5059114,146.631084 75.4155029,146.781765 75.34,146.94 L74.66,148.27 C74.07,149.44 73.27,151.14 72.3,153.27 C70.36,157.5 67.87,163.43 65.2,170.01 C62.53,176.59 60.11,182.53 58.26,186.79 C57.35,188.86 56.61,190.57 56.06,191.79 L55.46,193.17 C55.3776335,193.326794 55.3202749,193.495495 55.29,193.67 L55.29,193.67 Z" id="Path" fill="#E0E0E0"></path>
                <path d="M6.09,176.1 C6.23891765,176.195432 6.40049406,176.269488 6.57,176.32 L8,176.85 L13.29,178.74 C17.74,180.33 23.86,182.61 30.62,185.14 C37.38,187.67 43.53,189.89 48.01,191.39 C50.25,192.14 52.07,192.74 53.34,193.12 L54.8,193.55 C54.9681653,193.609784 55.1426428,193.650048 55.32,193.67 C55.1708151,193.568529 55.0049596,193.494063 54.83,193.45 L53.41,192.92 L48.14,191.03 C43.69,189.43 37.57,187.15 30.81,184.63 C24.05,182.11 17.88,179.88 13.4,178.36 C11.15,177.61 9.33,177.02 8.07,176.64 L6.61,176.2 C6.44218415,176.142558 6.26715136,176.108898 6.09,176.1 Z" id="Path" fill="#E0E0E0"></path>
                <path d="M224.99,53.98 C224.99,53.98 216.08,48.33 205.75,69.59 C195.42,90.85 191.59,103.06 191.59,103.06 C191.59,103.06 188.84,107.53 185.76,104.7 C182.68,101.87 178.36,93.78 173.29,95.36 C167.98,96.99 166.29,102.98 167.52,111.72 C168.75,120.46 170.6,139.72 170.76,141.45 C170.92,143.18 169.99,145.7 167.58,144.11 C165.17,142.52 151.2,127.54 144.49,134.6 C137.78,141.66 145.08,165.46 145.83,168.08 C146.58,170.7 146.08,171.83 144.83,172.5 C143.58,173.17 139.37,167.7 135.22,163.6 C131.07,159.5 125.54,155.48 122.01,159.88 C118.48,164.28 117.66,182.26 135.31,211.1 L144.31,223.93 L160.04,222.76 C193.55,218.2 206.97,206.2 208.14,200.68 C209.31,195.16 202.7,193.43 196.91,192.8 C191.12,192.17 184.19,192.37 183.91,190.99 C183.63,189.61 184.22,188.5 186.72,187.43 C189.22,186.36 212.29,176.96 213.51,167.3 C214.73,157.64 194.29,156.3 191.51,155.42 C188.73,154.54 190.14,152.23 191.51,151.27 C192.88,150.31 209.07,139.6 216.59,134.99 C224.11,130.38 227.72,125.32 225.59,120.17 C223.59,115.17 214.59,117 210.43,116.39 C206.27,115.78 208.01,110.83 208.01,110.83 C208.01,110.83 215.06,100.14 225.01,78.7 C234.96,57.26 224.67,53.89 224.67,53.89" id="Path" fill="#E6F4F1"></path>
                <path d="M141.88,226.8 C149.29,211.08 162.79,183.36 174.29,159.51 C185.79,135.66 196.22,114.06 203.66,98.36 C207.37,90.53 210.37,84.19 212.45,79.78 L214.85,74.73 L215.48,73.42 L215.71,72.98 C215.71,72.98 215.66,73.14 215.53,73.44 L214.94,74.77 L212.62,79.86 C210.62,84.28 207.62,90.65 203.97,98.51 C196.61,114.22 186.26,135.85 174.75,159.7 C163.24,183.55 149.63,211.25 142.19,226.93" id="Path" fill="#E0E0E0"></path>
                <path d="M178.81,106.92 C178.987358,107.257364 179.128158,107.612715 179.23,107.98 C179.47,108.67 179.78,109.68 180.17,110.92 C180.93,113.42 181.89,116.92 182.88,120.75 C183.87,124.58 184.71,127.99 185.38,130.62 C185.68,131.81 185.94,132.81 186.15,133.62 C186.27953,133.97753 186.360257,134.350894 186.39,134.73 C186.212642,134.392636 186.071842,134.037285 185.97,133.67 C185.73,132.98 185.41,131.98 185.04,130.67 C184.31,128.17 183.39,124.67 182.4,120.83 C181.41,116.99 180.52,113.6 179.84,110.98 C179.52,109.8 179.26,108.8 179.04,107.98 C178.926591,107.635651 178.849505,107.280385 178.81,106.92 L178.81,106.92 Z" id="Path" fill="#E0E0E0"></path>
                <path d="M187.84,134.97 C187.84,134.84 194.84,132.55 203.65,129.84 C212.46,127.13 219.56,125.05 219.60017,125.18 C219.64,125.31 212.6,127.61 203.79,130.31 C194.98,133.01 187.88,135.1 187.84,134.97 Z" id="Path" fill="#E0E0E0"></path>
                <path d="M168.51,170.8 C168.89295,170.734378 169.281937,170.710905 169.67,170.73 L172.82,170.68 C175.48,170.63 179.15,170.55 183.2,170.32 C187.25,170.09 190.91,169.76 193.56,169.5 L196.7,169.19 C197.08013,169.129117 197.46602,169.112339 197.85,169.14 C197.483373,169.261561 197.104386,169.342054 196.72,169.38 C195.99,169.51 194.92,169.67 193.6,169.84 C190.96,170.19 187.29,170.58 183.23,170.84 C179.17,171.1 175.48,171.1 172.82,171.05 C171.49,171.05 170.41,170.99 169.67,170.95 C169.278929,170.9437 168.889811,170.893383 168.51,170.8 L168.51,170.8 Z" id="Path" fill="#E0E0E0"></path>
                <path d="M154.76,147.23 C155.005296,147.492727 155.216924,147.784976 155.39,148.1 L156.96,150.56 C158.26,152.64 160.03,155.56 161.96,158.76 C163.89,161.96 165.62,164.9 166.85,167.03 L168.28,169.57 C168.476363,169.883191 168.634173,170.218957 168.75,170.57 C168.505996,170.309864 168.294451,170.021088 168.12,169.71 L166.55,167.25 C165.24,165.16 163.47,162.25 161.55,159.05 C159.63,155.85 157.89,152.9 156.66,150.77 L155.23,148.24 C155.032105,147.9241 154.874229,147.584834 154.76,147.23 L154.76,147.23 Z" id="Path" fill="#E0E0E0"></path>
                <path d="M133.68,176.7 C133.974767,177.046591 134.239081,177.417968 134.47,177.81 L136.47,180.95 C138.16,183.62 140.47,187.31 142.98,191.41 C145.49,195.51 147.75,199.24 149.36,201.95 C150.12,203.25 150.75,204.33 151.25,205.17 C151.496813,205.556576 151.707694,205.964949 151.88,206.39 C151.57818,206.04307 151.310289,205.668024 151.08,205.27 L149.08,202.13 C147.39,199.47 145.08,195.77 142.57,191.67 C140.06,187.57 137.8,183.84 136.19,181.13 L134.29,177.91 C134.046594,177.528149 133.842231,177.122774 133.68,176.7 Z" id="Path" fill="#E0E0E0"></path>
                <path d="M151.67,205.56 C152.151164,205.467402 152.640008,205.420527 153.13,205.42 L157.13,205.22 C160.5,205.04 165.13,204.78 170.29,204.34 C175.45,203.9 180.05,203.4 183.41,203.01 L187.41,202.55 C187.892463,202.469306 188.380836,202.429166 188.87,202.429987 C188.399448,202.570941 187.917687,202.671308 187.43,202.73 C186.5,202.9 185.15,203.11 183.43,203.35 C180.09,203.83 175.43,204.4 170.31,204.83 C165.19,205.26 160.5,205.47 157.13,205.56 C155.44,205.56 154.07,205.62 153.13,205.61 C152.642788,205.633781 152.154443,205.617057 151.67,205.56 Z" id="Path" fill="#E0E0E0"></path>
                <path d="M183.87,57.2 C168.898921,38.6516101 144.229547,30.9466194 121.363081,37.6772007 C98.4966156,44.4077819 81.9352021,64.2487609 79.4,87.95 L79.4,87.95 C77.3630544,107.073919 84.787737,125.988382 99.29,138.62 L47.7,199.16 L55.1,205.47 L107.1,144.41 C114.568091,149.025019 122.979403,151.899425 131.71,152.82 C133.825708,153.047386 135.952108,153.160884 138.08,153.16 C160.779739,153.132671 181.446461,140.071903 191.213801,119.580979 C200.981142,99.0900545 198.113056,74.8110278 183.84,57.16 L183.87,57.2 Z M186.94,99.44 C184.476139,122.797332 165.852511,141.159612 142.462692,143.293151 C119.072874,145.426689 97.4343577,130.736983 90.7851708,108.210911 C84.1359839,85.6848397 94.3288993,61.5992149 115.128088,50.6891579 C135.927276,39.7791008 161.537116,45.0846614 176.29,63.36 C184.510141,73.4848242 188.344326,86.4742509 186.94,99.44 L186.94,99.44 Z" id="Shape" fill="#263238"></path>
                <path d="M179.72,53.05 C164.742706,34.5300598 140.09081,26.8448248 117.242524,33.5726308 C94.3942387,40.3004368 77.8409247,60.1187774 75.29,83.8 L75.29,83.8 C73.2554116,102.922742 80.6842497,121.834548 95.19,134.46 L42.97,195.46 L50.89,201.79 L103.03,140.22 C110.499413,144.83222 118.91007,147.706402 127.64,148.63 C129.755686,148.857656 131.882101,148.971154 134.01,148.97 C156.709739,148.942671 177.376461,135.881903 187.143801,115.390979 C196.911142,94.9000545 194.043056,70.6210278 179.77,52.97 L179.72,53.05 Z M182.78,95.29 C180.28231,118.628248 161.646792,136.952326 138.269767,139.056369 C114.892742,141.160413 93.2847231,126.458446 86.6598259,103.941275 C80.0349287,81.4241029 90.2381907,57.3627693 111.029933,46.4716845 C131.821676,35.5805997 157.411389,40.8929361 172.15,59.16 C180.378957,69.2990003 184.207012,82.3100655 182.78,95.29 Z" id="Shape" fill="#455A64"></path>
                <path d="M107.1,121.99 C106.955246,121.860775 106.824523,121.716644 106.71,121.56 C106.48,121.26 106.11,120.83 105.71,120.24 C104.496538,118.595883 103.400488,116.868267 102.43,115.07 C95.8335412,103.038844 94.6207042,88.7825623 99.09,75.81 C99.7481747,73.8722894 100.53664,71.9813083 101.45,70.15 C101.77,69.5 102.06,69.02 102.24,68.68 C102.321767,68.50398 102.425965,68.3392794 102.55,68.19 C102.5004,68.3787806 102.426445,68.5603045 102.33,68.73 C102.18,69.08 101.92,69.57 101.64,70.24 C100.797503,72.0892214 100.062937,73.9857374 99.44,75.92 C95.1978623,88.8296722 96.392877,102.909906 102.75,114.92 C103.690574,116.726032 104.735682,118.47567 105.88,120.16 C106.27,120.76 106.61,121.16 106.82,121.53 C106.932419,121.67087 107.026504,121.825438 107.1,121.99 Z" id="Path" fill="#263238"></path>
                <path d="M109.56,61.47 C109.65,61.59 109.05,62.15 108.45,62.94 C107.85,63.73 107.45,64.44 107.32,64.39 C107.19,64.34 107.38,63.47 108.04,62.62 C108.7,61.77 109.49,61.36 109.56,61.47 Z" id="Path" fill="#263238"></path>
                <path d="M154.2,79.11 C154.167326,80.7433761 152.833703,82.0503268 151.2,82.05 C150.424,82.0769314 149.669611,81.7915482 149.105734,81.2577454 C148.541858,80.7239426 148.215598,79.9863108 148.2,79.21 C148.232674,77.5766239 149.566297,76.2696732 151.2,76.27 C151.976748,76.2403069 152.73271,76.5247663 153.297203,77.0591522 C153.861695,77.5935381 154.187119,78.3327911 154.2,79.11 L154.2,79.11 Z" id="Path" fill="#263238"></path>
                <path d="M123.89,79.1 C123.851969,80.7294544 122.519898,82.0304438 120.89,82.03 C120.113252,82.0596931 119.35729,81.7752337 118.792797,81.2408478 C118.228305,80.7064619 117.902881,79.9672089 117.89,79.19 C117.928031,77.5605456 119.260102,76.2595562 120.89,76.26 C121.667499,76.22751 122.425057,76.5110337 122.990175,77.0460124 C123.555293,77.580991 123.879871,78.321888 123.89,79.1 Z" id="Path" fill="#263238"></path>
                <path d="M147.52,108.12 C146.82,108.73 143.02,103.84 136.14,103.61 C129.26,103.38 124.46,107.95 123.89,107.3 C123.59,107.04 124.32,105.45 126.48,103.68 C129.315587,101.421964 132.85641,100.235788 136.48,100.33 C139.958691,100.417211 143.26773,101.851248 145.71,104.33 C147.49,106.26 147.88,107.89 147.52,108.12 Z" id="Path" fill="#263238"></path>
            </g>
        </g>
    </g>
</svg>