<svg width="14" height="3" viewBox="0 0 14 3" stroke-width="0" xmlns="http://www.w3.org/2000/svg">
    <path d="M1.26102 3C1.14102 3 1.03902 2.958 0.955023 2.874C0.871023 2.79 0.829023 2.688 0.829023 2.568V0.75C0.829023 0.63 0.871023 0.528 0.955023 0.444C1.03902 0.36 1.14102 0.318 1.26102 0.318H3.07902C3.19902 0.318 3.30102 0.36 3.38502 0.444C3.46902 0.528 3.51102 0.63 3.51102 0.75V2.568C3.51102 2.688 3.46902 2.79 3.38502 2.874C3.31302 2.958 3.21102 3 3.07902 3H1.26102ZM6.09501 3C5.97501 3 5.87301 2.958 5.78901 2.874C5.70501 2.79 5.66301 2.688 5.66301 2.568V0.75C5.66301 0.63 5.70501 0.528 5.78901 0.444C5.87301 0.36 5.97501 0.318 6.09501 0.318H7.91301C8.03301 0.318 8.13501 0.36 8.21901 0.444C8.30301 0.528 8.34501 0.63 8.34501 0.75V2.568C8.34501 2.688 8.30301 2.79 8.21901 2.874C8.14701 2.958 8.04501 3 7.91301 3H6.09501ZM10.929 3C10.809 3 10.707 2.958 10.623 2.874C10.539 2.79 10.497 2.688 10.497 2.568V0.75C10.497 0.63 10.539 0.528 10.623 0.444C10.707 0.36 10.809 0.318 10.929 0.318H12.747C12.867 0.318 12.969 0.36 13.053 0.444C13.137 0.528 13.179 0.63 13.179 0.75V2.568C13.179 2.688 13.137 2.79 13.053 2.874C12.981 2.958 12.879 3 12.747 3H10.929Z" />
</svg>
